<mxfile host="app.diagrams.net" agent="Mozilla/5.0 (Windows NT 10.0; Win64; x64; rv:134.0) Gecko/20100101 Firefox/134.0" version="26.0.11">
  <diagram name="Page-1" id="InxylClVmqxqSdc0B63j">
    <mxGraphModel dx="1034" dy="467" grid="1" gridSize="10" guides="1" tooltips="1" connect="1" arrows="1" fold="1" page="1" pageScale="1" pageWidth="1100" pageHeight="850" math="0" shadow="0">
      <root>
        <mxCell id="0" />
        <mxCell id="1" parent="0" />
        <mxCell id="cRW9LjRdFgyovcbOpqAZ-2" value="" style="group" vertex="1" connectable="0" parent="1">
          <mxGeometry x="500" y="80" width="120" height="80" as="geometry" />
        </mxCell>
        <mxCell id="cRW9LjRdFgyovcbOpqAZ-3" value="" style="ellipse;whiteSpace=wrap;html=1;" vertex="1" parent="cRW9LjRdFgyovcbOpqAZ-2">
          <mxGeometry width="120" height="80" as="geometry" />
        </mxCell>
        <mxCell id="cRW9LjRdFgyovcbOpqAZ-4" value="48V 30A" style="text;html=1;align=center;verticalAlign=middle;whiteSpace=wrap;rounded=0;container=0;" vertex="1" collapsed="1" parent="cRW9LjRdFgyovcbOpqAZ-2">
          <mxGeometry x="30" y="25" width="60" height="30" as="geometry">
            <mxRectangle x="320" y="275" width="60" height="30" as="alternateBounds" />
          </mxGeometry>
        </mxCell>
        <mxCell id="cRW9LjRdFgyovcbOpqAZ-5" value="" style="endArrow=classic;html=1;rounded=0;exitX=0;exitY=1;exitDx=0;exitDy=0;entryX=0.5;entryY=0;entryDx=0;entryDy=0;" edge="1" parent="1" source="cRW9LjRdFgyovcbOpqAZ-3" target="cRW9LjRdFgyovcbOpqAZ-7">
          <mxGeometry width="50" height="50" relative="1" as="geometry">
            <mxPoint x="510" y="280" as="sourcePoint" />
            <mxPoint x="390" y="200" as="targetPoint" />
            <Array as="points">
              <mxPoint x="390" y="148" />
            </Array>
          </mxGeometry>
        </mxCell>
        <mxCell id="cRW9LjRdFgyovcbOpqAZ-6" value="" style="group" vertex="1" connectable="0" parent="1">
          <mxGeometry x="330" y="210" width="120" height="80" as="geometry" />
        </mxCell>
        <mxCell id="cRW9LjRdFgyovcbOpqAZ-7" value="" style="ellipse;whiteSpace=wrap;html=1;" vertex="1" parent="cRW9LjRdFgyovcbOpqAZ-6">
          <mxGeometry width="120" height="80" as="geometry" />
        </mxCell>
        <mxCell id="cRW9LjRdFgyovcbOpqAZ-8" value="24V 54A" style="text;html=1;align=center;verticalAlign=middle;whiteSpace=wrap;rounded=0;container=0;" vertex="1" collapsed="1" parent="cRW9LjRdFgyovcbOpqAZ-6">
          <mxGeometry x="30" y="25" width="60" height="30" as="geometry">
            <mxRectangle x="320" y="275" width="60" height="30" as="alternateBounds" />
          </mxGeometry>
        </mxCell>
        <mxCell id="cRW9LjRdFgyovcbOpqAZ-9" value="" style="group" vertex="1" connectable="0" parent="1">
          <mxGeometry x="330" y="330" width="120" height="80" as="geometry" />
        </mxCell>
        <mxCell id="cRW9LjRdFgyovcbOpqAZ-10" value="" style="ellipse;whiteSpace=wrap;html=1;" vertex="1" parent="cRW9LjRdFgyovcbOpqAZ-9">
          <mxGeometry width="120" height="80" as="geometry" />
        </mxCell>
        <mxCell id="cRW9LjRdFgyovcbOpqAZ-11" value="Thrusters" style="text;html=1;align=center;verticalAlign=middle;whiteSpace=wrap;rounded=0;container=0;" vertex="1" collapsed="1" parent="cRW9LjRdFgyovcbOpqAZ-9">
          <mxGeometry x="30" y="25" width="60" height="30" as="geometry">
            <mxRectangle x="320" y="275" width="60" height="30" as="alternateBounds" />
          </mxGeometry>
        </mxCell>
        <mxCell id="cRW9LjRdFgyovcbOpqAZ-12" value="" style="endArrow=classic;html=1;rounded=0;exitX=0.5;exitY=1;exitDx=0;exitDy=0;entryX=0.5;entryY=0;entryDx=0;entryDy=0;" edge="1" parent="1" source="cRW9LjRdFgyovcbOpqAZ-7" target="cRW9LjRdFgyovcbOpqAZ-10">
          <mxGeometry width="50" height="50" relative="1" as="geometry">
            <mxPoint x="540" y="310" as="sourcePoint" />
            <mxPoint x="590" y="260" as="targetPoint" />
          </mxGeometry>
        </mxCell>
        <mxCell id="cRW9LjRdFgyovcbOpqAZ-13" value="" style="group" vertex="1" connectable="0" parent="1">
          <mxGeometry x="500" y="210" width="120" height="80" as="geometry" />
        </mxCell>
        <mxCell id="cRW9LjRdFgyovcbOpqAZ-14" value="" style="ellipse;whiteSpace=wrap;html=1;" vertex="1" parent="cRW9LjRdFgyovcbOpqAZ-13">
          <mxGeometry width="120" height="80" as="geometry" />
        </mxCell>
        <mxCell id="cRW9LjRdFgyovcbOpqAZ-15" value="12V 10A" style="text;html=1;align=center;verticalAlign=middle;whiteSpace=wrap;rounded=0;container=0;" vertex="1" collapsed="1" parent="cRW9LjRdFgyovcbOpqAZ-13">
          <mxGeometry x="30" y="25" width="60" height="30" as="geometry">
            <mxRectangle x="320" y="275" width="60" height="30" as="alternateBounds" />
          </mxGeometry>
        </mxCell>
        <mxCell id="cRW9LjRdFgyovcbOpqAZ-16" style="edgeStyle=orthogonalEdgeStyle;rounded=0;orthogonalLoop=1;jettySize=auto;html=1;exitX=0.5;exitY=1;exitDx=0;exitDy=0;entryX=0.5;entryY=0;entryDx=0;entryDy=0;" edge="1" parent="1" source="cRW9LjRdFgyovcbOpqAZ-3" target="cRW9LjRdFgyovcbOpqAZ-14">
          <mxGeometry relative="1" as="geometry" />
        </mxCell>
        <mxCell id="cRW9LjRdFgyovcbOpqAZ-17" value="" style="group" vertex="1" connectable="0" parent="1">
          <mxGeometry x="210" y="120" width="120" height="80" as="geometry" />
        </mxCell>
        <mxCell id="cRW9LjRdFgyovcbOpqAZ-18" value="" style="ellipse;whiteSpace=wrap;html=1;" vertex="1" parent="cRW9LjRdFgyovcbOpqAZ-17">
          <mxGeometry width="120" height="80" as="geometry" />
        </mxCell>
        <mxCell id="cRW9LjRdFgyovcbOpqAZ-19" value="Reed Switch" style="text;html=1;align=center;verticalAlign=middle;whiteSpace=wrap;rounded=0;container=0;" vertex="1" collapsed="1" parent="cRW9LjRdFgyovcbOpqAZ-17">
          <mxGeometry x="30" y="25" width="60" height="30" as="geometry">
            <mxRectangle x="320" y="275" width="60" height="30" as="alternateBounds" />
          </mxGeometry>
        </mxCell>
        <mxCell id="cRW9LjRdFgyovcbOpqAZ-20" value="" style="endArrow=none;dashed=1;html=1;rounded=0;exitX=0.5;exitY=1;exitDx=0;exitDy=0;entryX=0;entryY=0.5;entryDx=0;entryDy=0;" edge="1" parent="1" source="cRW9LjRdFgyovcbOpqAZ-18" target="cRW9LjRdFgyovcbOpqAZ-7">
          <mxGeometry width="50" height="50" relative="1" as="geometry">
            <mxPoint x="590" y="310" as="sourcePoint" />
            <mxPoint x="640" y="260" as="targetPoint" />
            <Array as="points">
              <mxPoint x="270" y="250" />
            </Array>
          </mxGeometry>
        </mxCell>
        <mxCell id="cRW9LjRdFgyovcbOpqAZ-24" value="" style="group" vertex="1" connectable="0" parent="1">
          <mxGeometry x="500" y="330" width="120" height="80" as="geometry" />
        </mxCell>
        <mxCell id="cRW9LjRdFgyovcbOpqAZ-25" value="" style="ellipse;whiteSpace=wrap;html=1;" vertex="1" parent="cRW9LjRdFgyovcbOpqAZ-24">
          <mxGeometry width="120" height="80" as="geometry" />
        </mxCell>
        <mxCell id="cRW9LjRdFgyovcbOpqAZ-26" value="Computers" style="text;html=1;align=center;verticalAlign=middle;whiteSpace=wrap;rounded=0;container=0;" vertex="1" collapsed="1" parent="cRW9LjRdFgyovcbOpqAZ-24">
          <mxGeometry x="30" y="25" width="60" height="30" as="geometry">
            <mxRectangle x="320" y="275" width="60" height="30" as="alternateBounds" />
          </mxGeometry>
        </mxCell>
        <mxCell id="cRW9LjRdFgyovcbOpqAZ-27" style="edgeStyle=orthogonalEdgeStyle;rounded=0;orthogonalLoop=1;jettySize=auto;html=1;exitX=0.5;exitY=1;exitDx=0;exitDy=0;entryX=0.5;entryY=0;entryDx=0;entryDy=0;" edge="1" parent="1" source="cRW9LjRdFgyovcbOpqAZ-14" target="cRW9LjRdFgyovcbOpqAZ-25">
          <mxGeometry relative="1" as="geometry" />
        </mxCell>
        <mxCell id="cRW9LjRdFgyovcbOpqAZ-28" value="" style="group" vertex="1" connectable="0" parent="1">
          <mxGeometry x="670" y="210" width="120" height="80" as="geometry" />
        </mxCell>
        <mxCell id="cRW9LjRdFgyovcbOpqAZ-35" style="edgeStyle=orthogonalEdgeStyle;rounded=0;orthogonalLoop=1;jettySize=auto;html=1;exitX=0.5;exitY=1;exitDx=0;exitDy=0;" edge="1" parent="cRW9LjRdFgyovcbOpqAZ-28" source="cRW9LjRdFgyovcbOpqAZ-29">
          <mxGeometry relative="1" as="geometry">
            <mxPoint x="60" y="120" as="targetPoint" />
          </mxGeometry>
        </mxCell>
        <mxCell id="cRW9LjRdFgyovcbOpqAZ-29" value="" style="ellipse;whiteSpace=wrap;html=1;" vertex="1" parent="cRW9LjRdFgyovcbOpqAZ-28">
          <mxGeometry width="120" height="80" as="geometry" />
        </mxCell>
        <mxCell id="cRW9LjRdFgyovcbOpqAZ-30" value="5V 20A" style="text;html=1;align=center;verticalAlign=middle;whiteSpace=wrap;rounded=0;container=0;" vertex="1" collapsed="1" parent="cRW9LjRdFgyovcbOpqAZ-28">
          <mxGeometry x="30" y="25" width="60" height="30" as="geometry">
            <mxRectangle x="320" y="275" width="60" height="30" as="alternateBounds" />
          </mxGeometry>
        </mxCell>
        <mxCell id="cRW9LjRdFgyovcbOpqAZ-31" style="edgeStyle=orthogonalEdgeStyle;rounded=0;orthogonalLoop=1;jettySize=auto;html=1;exitX=1;exitY=1;exitDx=0;exitDy=0;entryX=0.5;entryY=0;entryDx=0;entryDy=0;" edge="1" parent="1" source="cRW9LjRdFgyovcbOpqAZ-3" target="cRW9LjRdFgyovcbOpqAZ-29">
          <mxGeometry relative="1" as="geometry" />
        </mxCell>
        <mxCell id="cRW9LjRdFgyovcbOpqAZ-32" value="" style="group" vertex="1" connectable="0" parent="1">
          <mxGeometry x="670" y="330" width="120" height="80" as="geometry" />
        </mxCell>
        <mxCell id="cRW9LjRdFgyovcbOpqAZ-33" value="" style="ellipse;whiteSpace=wrap;html=1;" vertex="1" parent="cRW9LjRdFgyovcbOpqAZ-32">
          <mxGeometry width="120" height="80" as="geometry" />
        </mxCell>
        <mxCell id="cRW9LjRdFgyovcbOpqAZ-34" value="Servos" style="text;html=1;align=center;verticalAlign=middle;whiteSpace=wrap;rounded=0;container=0;" vertex="1" collapsed="1" parent="cRW9LjRdFgyovcbOpqAZ-32">
          <mxGeometry x="30" y="25" width="60" height="30" as="geometry">
            <mxRectangle x="320" y="275" width="60" height="30" as="alternateBounds" />
          </mxGeometry>
        </mxCell>
        <mxCell id="cRW9LjRdFgyovcbOpqAZ-38" value="" style="endArrow=none;dashed=1;html=1;rounded=0;exitX=1;exitY=0;exitDx=0;exitDy=0;entryX=0;entryY=1;entryDx=0;entryDy=0;" edge="1" parent="1" source="cRW9LjRdFgyovcbOpqAZ-25" target="cRW9LjRdFgyovcbOpqAZ-29">
          <mxGeometry width="50" height="50" relative="1" as="geometry">
            <mxPoint x="650" y="390" as="sourcePoint" />
            <mxPoint x="710" y="440" as="targetPoint" />
          </mxGeometry>
        </mxCell>
      </root>
    </mxGraphModel>
  </diagram>
</mxfile>
